<svg width="106" height="23" viewBox="0 0 106 23" fill="none" xmlns="http://www.w3.org/2000/svg">
<path d="M11.1608 0.682229C11.1608 0.293951 10.8457 -0.0231176 10.4582 0.00132468C9.23285 0.0786133 8.027 0.357677 6.88972 0.828752C5.53564 1.38963 4.30528 2.21173 3.26891 3.2481C2.23254 4.28447 1.41044 5.51483 0.849562 6.86891C0.288681 8.223 -1.28131e-07 9.6743 0 11.1399C1.28131e-07 12.6056 0.288682 14.0569 0.849563 15.411C1.41044 16.7651 2.23254 17.9954 3.26891 19.0318C4.30529 20.0682 5.53564 20.8903 6.88972 21.4511C8.027 21.9222 9.23285 22.2013 10.4582 22.2786C10.8457 22.303 11.1608 21.9859 11.1608 21.5977L11.1608 0.682229Z" fill="url(#paint0_linear_4208_11813)"/>
<path d="M17.1357 2.96733C17.1357 2.57905 16.8203 2.26128 16.4334 2.29323C14.3831 2.46256 12.449 3.36913 10.9838 4.86397C9.35216 6.52852 8.43555 8.78614 8.43555 11.1402C8.43555 13.4942 9.35216 15.7518 10.9838 17.4164C12.449 18.9112 14.3831 19.8178 16.4334 19.9871C16.8203 20.0191 17.1357 19.7013 17.1357 19.313V2.96733Z" fill="url(#paint1_linear_4208_11813)"/>
<path d="M30.636 13.4452L29.3864 14.6781V16.9608H26.7871V4.59766H29.3864V11.5957L33.1853 7.9967H36.2844L32.5521 11.7956L36.6177 16.9608H33.4686L30.636 13.4452Z" fill="url(#paint2_linear_4208_11813)"/>
<path d="M46.4935 7.9967V16.9608H44.0109V15.9278C43.3666 16.7053 42.4336 17.0941 41.2117 17.0941C40.3675 17.0941 39.601 16.9053 38.9123 16.5276C38.2347 16.15 37.7016 15.6112 37.3128 14.9114C36.924 14.2116 36.7296 13.4007 36.7296 12.4788C36.7296 11.5568 36.924 10.7459 37.3128 10.0461C37.7016 9.34632 38.2347 8.80758 38.9123 8.42991C39.601 8.05224 40.3675 7.8634 41.2117 7.8634C42.3558 7.8634 43.25 8.22441 43.8943 8.94643V7.9967H46.4935ZM41.6616 14.9614C42.3169 14.9614 42.8612 14.7392 43.2944 14.2949C43.7276 13.8395 43.9442 13.2341 43.9442 12.4788C43.9442 11.7234 43.7276 11.1236 43.2944 10.6793C42.8612 10.2238 42.3169 9.99613 41.6616 9.99613C40.9951 9.99613 40.4452 10.2238 40.012 10.6793C39.5788 11.1236 39.3622 11.7234 39.3622 12.4788C39.3622 13.2341 39.5788 13.8395 40.012 14.2949C40.4452 14.7392 40.9951 14.9614 41.6616 14.9614Z" fill="url(#paint3_linear_4208_11813)"/>
<path d="M54.3485 7.8634C55.4593 7.8634 56.3535 8.19664 57.031 8.86312C57.7197 9.5296 58.0641 10.5182 58.0641 11.8289V16.9608H55.4648V12.2288C55.4648 11.5179 55.3093 10.9903 54.9983 10.6459C54.6873 10.2905 54.2374 10.1128 53.6487 10.1128C52.9933 10.1128 52.4712 10.3183 52.0824 10.7293C51.6937 11.1291 51.4993 11.729 51.4993 12.5288V16.9608H48.9V7.9967H51.3826V9.0464C51.727 8.66873 52.1546 8.37992 52.6656 8.17998C53.1766 7.96893 53.7375 7.8634 54.3485 7.8634Z" fill="url(#paint4_linear_4208_11813)"/>
<path d="M69.6152 7.9967V16.9608H67.1326V15.9278C66.4884 16.7053 65.5553 17.0941 64.3334 17.0941C63.4892 17.0941 62.7228 16.9053 62.0341 16.5276C61.3565 16.15 60.8233 15.6112 60.4345 14.9114C60.0457 14.2116 59.8513 13.4007 59.8513 12.4788C59.8513 11.5568 60.0457 10.7459 60.4345 10.0461C60.8233 9.34632 61.3565 8.80758 62.0341 8.42991C62.7228 8.05224 63.4892 7.8634 64.3334 7.8634C65.4775 7.8634 66.3717 8.22441 67.016 8.94643V7.9967H69.6152ZM64.7833 14.9614C65.4387 14.9614 65.9829 14.7392 66.4162 14.2949C66.8494 13.8395 67.066 13.2341 67.066 12.4788C67.066 11.7234 66.8494 11.1236 66.4162 10.6793C65.9829 10.2238 65.4387 9.99613 64.7833 9.99613C64.1168 9.99613 63.567 10.2238 63.1337 10.6793C62.7005 11.1236 62.4839 11.7234 62.4839 12.4788C62.4839 13.2341 62.7005 13.8395 63.1337 14.2949C63.567 14.7392 64.1168 14.9614 64.7833 14.9614Z" fill="url(#paint5_linear_4208_11813)"/>
<path d="M74.9376 17.0441C74.1489 17.0441 73.538 16.822 73.1048 16.3777C72.6827 15.9333 72.4716 15.3169 72.4716 14.5282V4.59766H73.6546V14.4282C73.6546 14.9503 73.7768 15.3502 74.0212 15.6279C74.2655 15.8945 74.6321 16.0278 75.1209 16.0278C75.4319 16.0278 75.6985 15.9778 75.9206 15.8778L76.0039 16.8609C75.6596 16.9831 75.3041 17.0441 74.9376 17.0441Z" fill="url(#paint6_linear_4208_11813)"/>
<path d="M85.4484 8.19664V16.9608H84.3154V15.228C83.9599 15.8167 83.4879 16.2666 82.8991 16.5776C82.3215 16.8886 81.6661 17.0441 80.933 17.0441C80.111 17.0441 79.3668 16.8553 78.7003 16.4776C78.0338 16.1 77.5118 15.5723 77.1341 14.8948C76.7564 14.2172 76.5676 13.4452 76.5676 12.5787C76.5676 11.7123 76.7564 10.9403 77.1341 10.2627C77.5118 9.58514 78.0338 9.06306 78.7003 8.6965C79.3668 8.31883 80.111 8.12999 80.933 8.12999C81.6439 8.12999 82.2826 8.27995 82.8491 8.57987C83.4268 8.86867 83.8988 9.29633 84.2654 9.86284V8.19664H85.4484ZM81.033 15.9944C81.6439 15.9944 82.1938 15.8556 82.6825 15.5779C83.1824 15.2891 83.5712 14.8836 83.8489 14.3616C84.1377 13.8395 84.2821 13.2452 84.2821 12.5787C84.2821 11.9123 84.1377 11.318 83.8489 10.7959C83.5712 10.2738 83.1824 9.87394 82.6825 9.59625C82.1938 9.30744 81.6439 9.16303 81.033 9.16303C80.4109 9.16303 79.85 9.30744 79.3501 9.59625C78.8614 9.87394 78.4726 10.2738 78.1838 10.7959C77.9061 11.318 77.7672 11.9123 77.7672 12.5787C77.7672 13.2452 77.9061 13.8395 78.1838 14.3616C78.4726 14.8836 78.8614 15.2891 79.3501 15.5779C79.85 15.8556 80.4109 15.9944 81.033 15.9944Z" fill="url(#paint7_linear_4208_11813)"/>
<path d="M93.2584 8.12999C94.0804 8.12999 94.8247 8.31883 95.4911 8.6965C96.1576 9.06306 96.6797 9.58514 97.0574 10.2627C97.435 10.9403 97.6239 11.7123 97.6239 12.5787C97.6239 13.4452 97.435 14.2172 97.0574 14.8948C96.6797 15.5723 96.1576 16.1 95.4911 16.4776C94.8247 16.8553 94.0804 17.0441 93.2584 17.0441C92.5253 17.0441 91.8644 16.8886 91.2757 16.5776C90.6981 16.2666 90.2315 15.8167 89.8761 15.228V16.9608H88.7431V4.59766H89.9261V9.86284C90.2926 9.29633 90.7592 8.86867 91.3257 8.57987C91.9033 8.27995 92.5475 8.12999 93.2584 8.12999ZM93.1751 15.9944C93.7861 15.9944 94.3415 15.8556 94.8413 15.5779C95.3412 15.2891 95.73 14.8836 96.0077 14.3616C96.2965 13.8395 96.4409 13.2452 96.4409 12.5787C96.4409 11.9123 96.2965 11.318 96.0077 10.7959C95.73 10.2738 95.3412 9.87394 94.8413 9.59625C94.3415 9.30744 93.7861 9.16303 93.1751 9.16303C92.5531 9.16303 91.9921 9.30744 91.4923 9.59625C91.0035 9.87394 90.6147 10.2738 90.3259 10.7959C90.0482 11.318 89.9094 11.9123 89.9094 12.5787C89.9094 13.2452 90.0482 13.8395 90.3259 14.3616C90.6147 14.8836 91.0035 15.2891 91.4923 15.5779C91.9921 15.8556 92.5531 15.9944 93.1751 15.9944Z" fill="url(#paint8_linear_4208_11813)"/>
<path d="M102.385 17.0441C101.674 17.0441 100.991 16.9442 100.335 16.7442C99.6911 16.5332 99.1857 16.2721 98.8191 15.9611L99.3523 15.028C99.7189 15.3169 100.18 15.5557 100.735 15.7445C101.291 15.9222 101.868 16.0111 102.468 16.0111C103.268 16.0111 103.857 15.8889 104.234 15.6445C104.623 15.3891 104.817 15.0336 104.817 14.5782C104.817 14.256 104.712 14.0061 104.501 13.8284C104.29 13.6395 104.023 13.5007 103.701 13.4118C103.379 13.3119 102.951 13.2174 102.418 13.1286C101.707 12.9953 101.135 12.862 100.702 12.7287C100.269 12.5843 99.8966 12.3455 99.5856 12.0122C99.2856 11.679 99.1357 11.218 99.1357 10.6293C99.1357 9.89616 99.4412 9.29633 100.052 8.82979C100.663 8.36326 101.513 8.12999 102.601 8.12999C103.168 8.12999 103.734 8.20775 104.301 8.36326C104.867 8.50766 105.334 8.70205 105.701 8.94643L105.184 9.89616C104.462 9.3963 103.601 9.14637 102.601 9.14637C101.846 9.14637 101.274 9.27967 100.885 9.54626C100.508 9.81285 100.319 10.1628 100.319 10.596C100.319 10.9292 100.424 11.1958 100.635 11.3957C100.857 11.5957 101.13 11.7456 101.452 11.8456C101.774 11.9345 102.218 12.0289 102.785 12.1289C103.484 12.2622 104.045 12.3955 104.468 12.5288C104.89 12.662 105.251 12.8898 105.551 13.2119C105.85 13.534 106 13.9783 106 14.5448C106 15.3113 105.678 15.9222 105.034 16.3777C104.401 16.822 103.518 17.0441 102.385 17.0441Z" fill="url(#paint9_linear_4208_11813)"/>
<defs>
<linearGradient id="paint0_linear_4208_11813" x1="-0.13534" y1="24.6462" x2="17.3314" y2="-2.80987" gradientUnits="userSpaceOnUse">
<stop stop-color="#0194FF"/>
<stop offset="1" stop-color="#1FF8D1"/>
</linearGradient>
<linearGradient id="paint1_linear_4208_11813" x1="8.33005" y1="21.869" x2="22.3142" y2="0.297754" gradientUnits="userSpaceOnUse">
<stop stop-color="#0194FF"/>
<stop offset="1" stop-color="#1FF8D1"/>
</linearGradient>
<linearGradient id="paint2_linear_4208_11813" x1="66.3938" y1="4.59766" x2="66.3938" y2="17.0941" gradientUnits="userSpaceOnUse">
<stop stop-color="#5FE9D0"/>
<stop offset="1" stop-color="#2E90FA"/>
</linearGradient>
<linearGradient id="paint3_linear_4208_11813" x1="66.3938" y1="4.59766" x2="66.3938" y2="17.0941" gradientUnits="userSpaceOnUse">
<stop stop-color="#5FE9D0"/>
<stop offset="1" stop-color="#2E90FA"/>
</linearGradient>
<linearGradient id="paint4_linear_4208_11813" x1="66.3938" y1="4.59766" x2="66.3938" y2="17.0941" gradientUnits="userSpaceOnUse">
<stop stop-color="#5FE9D0"/>
<stop offset="1" stop-color="#2E90FA"/>
</linearGradient>
<linearGradient id="paint5_linear_4208_11813" x1="66.3938" y1="4.59766" x2="66.3938" y2="17.0941" gradientUnits="userSpaceOnUse">
<stop stop-color="#5FE9D0"/>
<stop offset="1" stop-color="#2E90FA"/>
</linearGradient>
<linearGradient id="paint6_linear_4208_11813" x1="66.3938" y1="4.59766" x2="66.3938" y2="17.0941" gradientUnits="userSpaceOnUse">
<stop stop-color="#5FE9D0"/>
<stop offset="1" stop-color="#2E90FA"/>
</linearGradient>
<linearGradient id="paint7_linear_4208_11813" x1="66.3938" y1="4.59766" x2="66.3938" y2="17.0941" gradientUnits="userSpaceOnUse">
<stop stop-color="#5FE9D0"/>
<stop offset="1" stop-color="#2E90FA"/>
</linearGradient>
<linearGradient id="paint8_linear_4208_11813" x1="66.3938" y1="4.59766" x2="66.3938" y2="17.0941" gradientUnits="userSpaceOnUse">
<stop stop-color="#5FE9D0"/>
<stop offset="1" stop-color="#2E90FA"/>
</linearGradient>
<linearGradient id="paint9_linear_4208_11813" x1="66.3938" y1="4.59766" x2="66.3938" y2="17.0941" gradientUnits="userSpaceOnUse">
<stop stop-color="#5FE9D0"/>
<stop offset="1" stop-color="#2E90FA"/>
</linearGradient>
</defs>
</svg>
